<svg xmlns="http://www.w3.org/2000/svg" viewBox="0 0 480 380" fill="none">

  <!-- Background tropical leaves (back layer) -->
  <!-- Large left leaf -->
  <path d="M20 80 C40 40, 90 20, 110 60 C130 100, 100 160, 60 180 C40 190, 10 170, 20 80 Z"
        fill="#729152" opacity="0.55"/>
  <path d="M65 30 C68 80, 62 130, 50 175" stroke="#12270F" stroke-width="1.8" stroke-linecap="round" fill="none" opacity="0.5"/>

  <!-- Large right leaf -->
  <path d="M390 50 C420 20, 470 40, 468 90 C466 140, 430 180, 400 175 C375 170, 360 110, 390 50 Z"
        fill="#5a7a3a" opacity="0.5"/>
  <path d="M430 28 C422 78, 415 128, 408 170" stroke="#12270F" stroke-width="1.8" stroke-linecap="round" fill="none" opacity="0.45"/>

  <!-- Small accent leaves -->
  <path d="M30 240 C10 210, 20 170, 55 175 C80 178, 90 210, 70 240 C55 260, 35 265, 30 240 Z"
        fill="#4a6e2a" opacity="0.6"/>
  <path d="M440 260 C465 235, 475 195, 450 192 C430 190, 418 220, 430 255 C440 275, 450 270, 440 260 Z"
        fill="#5a7a3a" opacity="0.55"/>

  <!-- Wooden table surface -->
  <rect x="60" y="210" width="360" height="120" rx="12" fill="#8B5E3C"/>
  <rect x="60" y="210" width="360" height="14" rx="4" fill="#A0714F"/>
  <!-- Wood grain lines -->
  <path d="M80 228 Q180 232, 280 229 Q360 226, 400 230" stroke="#7a5230" stroke-width="1" fill="none" opacity="0.5"/>
  <path d="M75 245 Q160 248, 260 245 Q350 242, 415 246" stroke="#7a5230" stroke-width="1" fill="none" opacity="0.4"/>
  <path d="M80 262 Q200 266, 310 262 Q380 259, 410 263" stroke="#7a5230" stroke-width="1" fill="none" opacity="0.35"/>

  <!-- Banana leaf on table -->
  <ellipse cx="240" cy="225" rx="155" ry="38" fill="#5a8a2a" transform="rotate(-3, 240, 225)"/>
  <!-- Leaf midrib -->
  <path d="M88 230 C170 218, 290 218, 394 228" stroke="#3d6b1a" stroke-width="2.5" stroke-linecap="round" fill="none"/>
  <!-- Leaf veins -->
  <path d="M130 220 C140 228, 148 234, 142 244" stroke="#3d6b1a" stroke-width="1" fill="none" opacity="0.6"/>
  <path d="M160 216 C170 224, 175 232, 168 242" stroke="#3d6b1a" stroke-width="1" fill="none" opacity="0.6"/>
  <path d="M200 213 C208 221, 210 230, 202 240" stroke="#3d6b1a" stroke-width="1" fill="none" opacity="0.6"/>
  <path d="M240 212 C246 220, 246 230, 238 240" stroke="#3d6b1a" stroke-width="1" fill="none" opacity="0.6"/>
  <path d="M278 213 C272 221, 270 230, 276 240" stroke="#3d6b1a" stroke-width="1" fill="none" opacity="0.6"/>
  <path d="M315 216 C308 224, 306 232, 312 242" stroke="#3d6b1a" stroke-width="1" fill="none" opacity="0.6"/>
  <path d="M350 220 C342 228, 340 235, 346 244" stroke="#3d6b1a" stroke-width="1" fill="none" opacity="0.6"/>

  <!-- Rice mound on leaf -->
  <ellipse cx="228" cy="214" rx="58" ry="22" fill="#F5E6A3"/>
  <ellipse cx="228" cy="206" rx="52" ry="18" fill="#F7EBB0"/>
  <ellipse cx="228" cy="200" rx="44" ry="14" fill="#FAF0C0"/>
  <!-- Rice texture dots -->
  <circle cx="210" cy="204" r="1.5" fill="#e8d87a" opacity="0.6"/>
  <circle cx="222" cy="200" r="1.5" fill="#e8d87a" opacity="0.6"/>
  <circle cx="234" cy="202" r="1.5" fill="#e8d87a" opacity="0.6"/>
  <circle cx="244" cy="205" r="1.5" fill="#e8d87a" opacity="0.6"/>
  <circle cx="218" cy="208" r="1.5" fill="#e8d87a" opacity="0.5"/>
  <circle cx="238" cy="208" r="1.5" fill="#e8d87a" opacity="0.5"/>
  <!-- Steam wisps -->
  <path d="M218 188 C216 178, 220 170, 218 162" stroke="#cccccc" stroke-width="1.8" stroke-linecap="round" fill="none" opacity="0.55"/>
  <path d="M228 185 C227 175, 231 166, 229 157" stroke="#cccccc" stroke-width="1.8" stroke-linecap="round" fill="none" opacity="0.55"/>
  <path d="M238 188 C237 178, 241 169, 238 160" stroke="#cccccc" stroke-width="1.8" stroke-linecap="round" fill="none" opacity="0.45"/>

  <!-- Curry bowl (left side of leaf) -->
  <ellipse cx="144" cy="222" rx="28" ry="12" fill="#8B3A1A"/>
  <ellipse cx="144" cy="218" rx="28" ry="9" fill="#6d2a10"/>
  <ellipse cx="144" cy="216" rx="25" ry="7" fill="#C25B1E"/>
  <!-- Curry surface -->
  <ellipse cx="144" cy="214" rx="22" ry="5.5" fill="#D4691E"/>
  <circle cx="138" cy="213" r="2" fill="#b05010" opacity="0.5"/>
  <circle cx="148" cy="215" r="1.5" fill="#b05010" opacity="0.5"/>
  <circle cx="143" cy="212" r="1" fill="#903a08" opacity="0.4"/>

  <!-- Chicken drumstick (right side of leaf) -->
  <!-- Bone -->
  <rect x="310" y="212" width="6" height="22" rx="3" fill="#e8d0a0"/>
  <!-- Meat -->
  <ellipse cx="313" cy="208" rx="14" ry="10" fill="#C84B2A"/>
  <ellipse cx="313" cy="205" rx="12" ry="8" fill="#D4553A"/>
  <path d="M302 208 C306 200, 318 198, 324 206" stroke="#b03020" stroke-width="1.2" fill="none" opacity="0.6"/>

  <!-- Boiled egg half (front center-right of leaf) -->
  <ellipse cx="282" cy="224" rx="13" ry="9" fill="#F5F0E0"/>
  <ellipse cx="282" cy="223" rx="13" ry="8" fill="#FAFAF0"/>
  <ellipse cx="282" cy="222" rx="6" ry="5" fill="#F0C040"/>
  <ellipse cx="282" cy="221" rx="4" ry="3.5" fill="#E8A020"/>

  <!-- Small dark cutlet / seeni sambol blob -->
  <ellipse cx="178" cy="228" rx="14" ry="6" fill="#5C3320"/>
  <ellipse cx="178" cy="226" rx="12" ry="5" fill="#7a4428"/>

  <!-- Chef (simplified flat illustration) -->
  <!-- Body / apron -->
  <rect x="194" y="110" width="52" height="70" rx="10" fill="#F0EDE4"/>
  <!-- Apron -->
  <path d="M204 118 L204 175 L236 175 L236 118 Z" fill="#E8E4DA" opacity="0.8"/>
  <!-- Chef jacket lapels -->
  <path d="M214 112 L220 128 L214 130 Z" fill="#d0ccc0"/>
  <path d="M226 112 L220 128 L226 130 Z" fill="#d0ccc0"/>
  <!-- Arms -->
  <rect x="170" y="118" width="28" height="16" rx="8" fill="#C68642" transform="rotate(15, 184, 126)"/>
  <rect x="242" y="115" width="28" height="16" rx="8" fill="#C68642" transform="rotate(-12, 256, 123)"/>
  <!-- Hands -->
  <ellipse cx="166" cy="130" rx="9" ry="8" fill="#C68642"/>
  <ellipse cx="270" cy="127" rx="9" ry="8" fill="#C68642"/>
  <!-- Neck -->
  <rect x="215" y="96" width="10" height="18" rx="5" fill="#C68642"/>
  <!-- Head -->
  <ellipse cx="220" cy="82" rx="24" ry="24" fill="#C68642"/>
  <!-- Face details -->
  <!-- Eyes -->
  <ellipse cx="213" cy="78" rx="3" ry="3.5" fill="#2C1810"/>
  <ellipse cx="227" cy="78" rx="3" ry="3.5" fill="#2C1810"/>
  <!-- Eye shine -->
  <circle cx="214" cy="77" r="1" fill="white"/>
  <circle cx="228" cy="77" r="1" fill="white"/>
  <!-- Eyebrows -->
  <path d="M210 73 Q213 71, 216 73" stroke="#2C1810" stroke-width="1.5" stroke-linecap="round" fill="none"/>
  <path d="M224 73 Q227 71, 230 73" stroke="#2C1810" stroke-width="1.5" stroke-linecap="round" fill="none"/>
  <!-- Nose -->
  <ellipse cx="220" cy="83" rx="3" ry="2" fill="#A05A28" opacity="0.5"/>
  <!-- Moustache -->
  <path d="M212 88 Q216 91, 220 89 Q224 91, 228 88" stroke="#2C1810" stroke-width="2" stroke-linecap="round" fill="none"/>
  <!-- Smile -->
  <path d="M214 93 Q220 97, 226 93" stroke="#2C1810" stroke-width="1.5" stroke-linecap="round" fill="none"/>
  <!-- Chef hat -->
  <rect x="200" y="52" width="40" height="28" rx="4" fill="white"/>
  <rect x="196" y="56" width="48" height="10" rx="5" fill="white"/>
  <rect x="196" y="62" width="48" height="4" rx="2" fill="#e8e4dc"/>
  <!-- Hat puff top -->
  <ellipse cx="220" cy="48" rx="22" ry="14" fill="white"/>

  <!-- Decorative bottom leaves (foreground) -->
  <path d="M0 320 C30 280, 80 295, 70 340 C60 370, 20 375, 0 360 Z"
        fill="#4a6e2a" opacity="0.7"/>
  <path d="M410 340 C430 295, 475 285, 480 325 C480 360, 455 378, 430 368 C408 358, 405 360, 410 340 Z"
        fill="#5a7a3a" opacity="0.65"/>

  <!-- Orange/red decorative leaf accent -->
  <path d="M340 290 C370 260, 420 270, 415 305 C410 330, 380 345, 360 335 C340 325, 330 305, 340 290 Z"
        fill="#C84B2A" opacity="0.35"/>
  <path d="M80 300 C60 268, 30 275, 35 308 C40 334, 68 344, 88 332 C106 320, 100 310, 80 300 Z"
        fill="#C84B2A" opacity="0.3"/>

</svg>
