<svg xmlns="http://www.w3.org/2000/svg" viewBox="0 0 120 120" fill="none">
  <defs>
    <linearGradient id="leafGrad" x1="60" y1="18" x2="60" y2="106" gradientUnits="userSpaceOnUse">
      <stop offset="0%" stop-color="#729152"/>
      <stop offset="100%" stop-color="#12270F"/>
    </linearGradient>
    <linearGradient id="bgGrad" x1="0" y1="0" x2="120" y2="120" gradientUnits="userSpaceOnUse">
      <stop offset="0%" stop-color="#F7F5F0"/>
      <stop offset="100%" stop-color="#EAE6DC"/>
    </linearGradient>
  </defs>
  <!-- Rounded square background -->
  <rect width="120" height="120" rx="28" fill="url(#bgGrad)"/>
  <!-- Banana leaf fill -->
  <path d="M60 18 C44 28, 22 52, 26 80 C30 100, 52 106, 66 98 C82 88, 96 64, 88 44 C80 24, 68 14, 60 18 Z"
        fill="url(#leafGrad)" opacity="0.18"/>
  <!-- Leaf midrib -->
  <path d="M60 18 C62 42, 58 70, 54 98"
        stroke="url(#leafGrad)" stroke-width="2.4" stroke-linecap="round" fill="none"/>
  <!-- Leaf veins — left side -->
  <path d="M60 30 C52 36, 44 44, 38 54" stroke="#729152" stroke-width="1.3" stroke-linecap="round" fill="none" opacity="0.75"/>
  <path d="M59 44 C50 50, 42 56, 36 66" stroke="#729152" stroke-width="1.3" stroke-linecap="round" fill="none" opacity="0.75"/>
  <path d="M58 58 C50 62, 44 68, 40 78" stroke="#12270F" stroke-width="1.3" stroke-linecap="round" fill="none" opacity="0.65"/>
  <path d="M56 72 C50 74, 46 80, 44 88" stroke="#12270F" stroke-width="1.3" stroke-linecap="round" fill="none" opacity="0.5"/>
  <!-- Leaf veins — right side -->
  <path d="M61 30 C70 36, 78 44, 82 54" stroke="#729152" stroke-width="1.3" stroke-linecap="round" fill="none" opacity="0.75"/>
  <path d="M60 44 C70 50, 78 56, 82 66" stroke="#729152" stroke-width="1.3" stroke-linecap="round" fill="none" opacity="0.75"/>
  <path d="M59 58 C68 62, 74 68, 76 78" stroke="#12270F" stroke-width="1.3" stroke-linecap="round" fill="none" opacity="0.5"/>
  <!-- Leaf outline -->
  <path d="M60 18 C44 28, 22 52, 26 80 C30 100, 52 106, 66 98 C82 88, 96 64, 88 44 C80 24, 68 14, 60 18 Z"
        stroke="url(#leafGrad)" stroke-width="2.2" fill="none"/>
</svg>
